inDegrees=no
num_controls=7
num_derivatives=13
num_iterations=58
num_multipliers=7
num_parameters=0
num_slacks=7
num_states=26
objective=0.449307
objective_accelerations=0.051370
objective_balance=0.006555
objective_effort=0.035529
objective_height=0.350912
objective_ligament=0.004941
solver_duration=855.047093
status=Solve_Succeeded
success=true
DataType=double
version=3
OpenSimVersion=4.5
endheader
time	/jointset/ground_pelvis/pelvis_tilt/value	/jointset/ground_pelvis/pelvis_tx/value	/jointset/ground_pelvis/pelvis_ty/value	/jointset/hip_l/hip_flexion_l/value	/jointset/hip_l/hip_adduction_l/value	/jointset/hip_l/hip_rotation_l/value	/jointset/back/lumbar_extension/value	/jointset/patellofemoral_l/patellar_flexion_l/value	/jointset/knee_l/knee_flexion_l/value	/jointset/knee_l/knee_adduction_l/value	/jointset/knee_l/knee_rotation_l/value	/jointset/ankle_l/ankle_angle_l/value	/jointset/subtalar_l/subtalar_angle_l/value	/jointset/ground_pelvis/pelvis_tilt/speed	/jointset/ground_pelvis/pelvis_tx/speed	/jointset/ground_pelvis/pelvis_ty/speed	/jointset/hip_l/hip_flexion_l/speed	/jointset/hip_l/hip_adduction_l/speed	/jointset/hip_l/hip_rotation_l/speed	/jointset/back/lumbar_extension/speed	/jointset/patellofemoral_l/patellar_flexion_l/speed	/jointset/knee_l/knee_flexion_l/speed	/jointset/knee_l/knee_adduction_l/speed	/jointset/knee_l/knee_rotation_l/speed	/jointset/ankle_l/ankle_angle_l/speed	/jointset/subtalar_l/subtalar_angle_l/speed	/forceset/tau_hip_flexion_l	/forceset/tau_hip_adduction_l	/forceset/tau_hip_rotation_l	/forceset/tau_knee_flexion_l	/forceset/tau_ankle_angle_l	/forceset/tau_subtalar_angle_l	/forceset/tau_lumbar_extension	lambda_cid13_p0	lambda_cid13_p1	lambda_cid13_p2	lambda_cid13_p3	lambda_cid13_p4	lambda_cid13_p5	lambda_cid14_p0	/jointset/ground_pelvis/pelvis_tilt/accel	/jointset/ground_pelvis/pelvis_tx/accel	/jointset/ground_pelvis/pelvis_ty/accel	/jointset/hip_l/hip_flexion_l/accel	/jointset/hip_l/hip_adduction_l/accel	/jointset/hip_l/hip_rotation_l/accel	/jointset/back/lumbar_extension/accel	/jointset/patellofemoral_l/patellar_flexion_l/accel	/jointset/knee_l/knee_flexion_l/accel	/jointset/knee_l/knee_adduction_l/accel	/jointset/knee_l/knee_rotation_l/accel	/jointset/ankle_l/ankle_angle_l/accel	/jointset/subtalar_l/subtalar_angle_l/accel	gamma_cid13_p0	gamma_cid13_p1	gamma_cid13_p2	gamma_cid13_p3	gamma_cid13_p4	gamma_cid13_p5	gamma_cid14_p0
0.5	-0.4161802567838119	-0.05682185887240083	0.765623632882693	1.233698310306082	-0.3072551421571603	-0.02679125392319097	-0.3234832494075005	0.726721599226597	0.7267215992266062	-0.1720220029055824	0.1696496823638792	0.08103924185020818	-0.03805008598644861	-0.6615001997649222	-0.2330029742826517	-0.4980871017763839	2.312396948369581	-0.02404806415914634	0.6425825639455165	-0.6332937623418174	1.889927586257427	1.889927586257422	-0.01469290582642479	0.02428245587383126	0.3410323713031563	0.02133705543902845	-0.2290469411252041	0.06211329891259617	-0.02242879543841534	-0.2144508927790608	0.1261460947550835	0.002286238316197742	0.2102916505784024	1.063970850478349	-3.323929469329463	2.577295292480773	-3.18374826488484	-605.0985942730247	-22.45970521071582	-25.98750378322847	0.6013569170302632	0.6405102427791373	-0.3715081682095472	-1.416128895469331	0.5851367852628904	-0.5584396494680165	1.724944780281068	-1.088350378162135	-1.088350378162122	0.1148848972588304	0.236088341970972	-0.2794511915896168	0.5552510171447244	-3.665225253519344e-07	-7.680923026282716e-07	1.867971320313719e-06	1.574141332505483e-07	-4.542474093579147e-07	-1.105495619068022e-07	-3.648938947451746e-07
0.51	-0.4227637335972873	-0.05911958766466269	0.7606252576185695	1.256747189916928	-0.3074683091392763	-0.0203908336902877	-0.3297298393610426	0.7455628056529886	0.7455628056530249	-0.1721682474906576	0.169902884557998	0.08443422734806114	-0.0378111737096664	-0.6551090526871257	-0.2265229533602814	-0.5014841854394025	2.297060844425492	-0.01864067284816845	0.6376452141890825	-0.6159506788829908	1.878011256714622	1.878011256714622	-0.01474362409259267	0.02620250255052429	0.3378819851617251	0.02638109182415834	-0.2368497289664479	0.06247537818522639	-0.02248663045182109	-0.2160268181861139	0.1250523061874994	0.002973487838598481	0.2164374844360675	0.4810897813634829	-3.382784665833775	2.429552418321347	-2.984370535846444	-609.6291586482824	-22.21248286259339	-24.87517356540844	0.6708701064339457	0.6547536775917562	-0.3083305415004902	-1.640120684421307	0.510067989616743	-0.4401382281484628	1.750022549952453	-1.288570646655303	-1.288570646654734	-0.09322856638059224	0.1462646831669721	-0.3452453354731282	0.4692346181186735	-3.366615400797051e-07	-6.855522307935863e-07	1.741234138486132e-06	1.457327314249047e-07	-4.123386435140591e-07	-6.451289041129808e-08	-3.384481229958109e-07
0.52	-0.4292807236392908	-0.06135191511557476	0.7555960071025863	1.279633154580252	-0.3076290966711427	-0.01403553807288137	-0.3358007919957348	0.7642757895031135	0.7642757895031194	-0.1723206349340404	0.1701705475893116	0.08779522638249115	-0.03752377013524859	-0.6482028454782819	-0.2199227060126922	-0.504262152148617	2.279813958859673	-0.01357217411311295	0.6335576408559528	-0.5981662985734963	1.864283070999186	1.86428307099919	-0.0159214774718007	0.02717462333318479	0.3342350786181618	0.03103531496615039	-0.2446525168077089	0.0628374574577673	-0.02254446546589456	-0.2176027435931066	0.1239585176198852	0.003660737360899218	0.2225833182937512	-0.1060689781503501	-3.445720556828992	2.287977817607688	-2.803696085371496	-614.2356188849625	-22.04639999593572	-23.76066784560761	0.7043689432393069	0.6645555278234649	-0.2476847774486312	-1.798285219815443	0.5173582700783048	-0.388484364807151	1.813204150414251	-1.450721612688291	-1.45072161268829	-0.1105421253493521	0.04650316316462465	-0.3787552720152169	0.4772883685172592	-3.000468077255071e-07	-6.581704713031903e-07	1.62158835992568e-06	1.266288964979275e-07	-3.673846810943568e-07	-2.631849439580403e-08	-3.156962284027437e-07
0.53	-0.4357262545264572	-0.06351774973322406	0.7505420755224989	1.302337733922373	-0.307740091262047	-0.007719454877339828	-0.3416917141145593	0.7828432700933979	0.7828432700934205	-0.1724874861971714	0.1704449236425415	0.09111767507772427	-0.03719085254991279	-0.640827824880396	-0.2132344613948051	-0.5064186433874658	2.260824001474668	-0.008621073897952641	0.6295534653220975	-0.5799540973878972	1.848972923708473	1.848972923708472	-0.01737235079214715	0.02769920310948687	0.3302003969776126	0.03555467133880803	-0.2523752684670105	0.06307906281696585	-0.02259832904027305	-0.219106474500837	0.1226762906139529	0.004266912867535252	0.2286015470938798	-0.7562896121276408	-3.463257414507519	2.140138823827954	-2.517925849743202	-618.8035874666961	-21.83702392981779	-22.64484078234224	0.7653630847705247	0.6724456674515168	-0.183871979187779	-1.991076750948917	0.4846902570951481	-0.4224940586520551	1.834832271956751	-1.607119040319013	-1.607119040319895	-0.150943480935821	0.05489790877670701	-0.423961637890434	0.4401492765366799	-2.673300652454717e-07	-6.188045540736467e-07	1.50718769916295e-06	1.106554235488515e-07	-3.269854848213875e-07	7.599059588935912e-09	-2.93105518924071e-07
0.54	-0.4420957763142671	-0.06561640455695752	0.7454697308936072	1.32484406854005	-0.3078014339788096	-0.001446635419403439	-0.3473985933876557	0.8012504576601619	0.8012504576601901	-0.1726665629026427	0.1707244379982887	0.09439814955099016	-0.03681256339987108	-0.6330010256143331	-0.206486747229519	-0.50794476190979	2.240165013965422	-0.003641799288347074	0.62490489334913	-0.5613577294294259	1.832224466295504	1.832224466295498	-0.01836656593484761	0.02820228384235453	0.3258402342244318	0.04010962790732938	-0.2600980201263471	0.0633206681760108	-0.02265219261442069	-0.220610205408636	0.1213940636079593	0.004873088373992202	0.2346197758940267	-1.412264519967873	-3.48398522006519	1.997605149454645	-2.240604525896853	-623.4653524970868	-21.70130039917264	-21.52900135167525	0.7947246768744037	0.676449437303746	-0.1216102341436382	-2.132091244663813	0.5229931489673182	-0.5173636526296425	1.890037504988283	-1.738383637139436	-1.738383637139421	-0.01921048982031212	0.04220335447791771	-0.4438514945408076	0.4844084076900774	-2.389259924134462e-07	-5.661795687071738e-07	1.39859014745302e-06	9.814532980936838e-08	-2.916256042852291e-07	3.678478834816058e-08	-2.706931419123879e-07
0.55	-0.4483849168433954	-0.06764737299213316	0.740385293008327	1.347135906921346	-0.3078120770295764	0.004775524908882936	-0.3529177548307849	0.81948340407278	0.819483404072789	-0.1728511711529079	0.171008872365573	0.09763374229684933	-0.03638765851918224	-0.6247597373268458	-0.1997050168042005	-0.5088343709284986	2.217948929151874	0.001578965263259577	0.6193295082830801	-0.54243394112881	1.814152798701057	1.814152798701063	-0.01829834657178634	0.02867653449512658	0.3212499706010685	0.0449487707057627	-0.2675307796689205	0.06343643285737174	-0.02270446212602993	-0.2222714006159336	0.1203255053012039	0.005308037791016238	0.2403561548581813	-2.000329614078667	-3.442482972697038	1.845426904272617	-1.967084806090216	-628.032336159202	-21.49828113498542	-20.41469976598191	0.8489070261139823	0.6793415608963818	-0.05642407059222293	-2.304458670932142	0.5313546285391917	-0.6075149710410623	1.899642201579486	-1.873309255930993	-1.87330925592932	0.05830411417993853	0.0485427422908636	-0.4708600704252353	0.4952086158483932	-2.183060047279091e-07	-4.938232582132742e-07	1.30805288467833e-06	9.209425045163081e-08	-2.630119035950326e-07	6.685774991799293e-08	-2.50437661531073e-07
0.5600000000000001	-0.4545896292653347	-0.06961046277990485	0.7352952014658898	1.369197966140292	-0.3077685651307587	0.01093595357902504	-0.3582464598491034	0.837529283622395	0.8375292836223572	-0.1730274040166136	0.1712977506036657	0.1008225831516386	-0.0359120539305233	-0.6161154041823667	-0.1929110177487273	-0.5090754933415772	2.194209181489032	0.007189190626120158	0.6125585617190981	-0.5232664444690277	1.794811093693255	1.794811093693274	-0.01669148861628546	0.02909105801247996	0.3164898560100548	0.0502495695013378	-0.274963539211393	0.06355219753879483	-0.0227567316382685	-0.2239325958231373	0.1192569469944676	0.005742987208109735	0.2460925338224265	-2.595220172492337	-3.403372292994163	1.697727589483713	-1.695542179575205	-632.7068149161868	-21.36331318416764	-19.30376011484089	0.8753336482724504	0.6789031633351211	0.008087086982432989	-2.436823814522854	0.6008853112179842	-0.7564759522161261	1.938779176821215	-1.992391119810317	-1.992391119810248	0.288517228667469	0.03025792739433411	-0.477821688070266	0.5767396071185039	-2.070269192181577e-07	-3.977893575664631e-07	1.239187968625928e-06	9.379398835198759e-08	-2.424936187199901e-07	9.799539086055446e-08	-2.327704571061999e-07
0.5700000000000001	-0.4607059471480933	-0.07150559137733677	0.730205933389624	1.391014942716943	-0.3076678742226843	0.01702498117053353	-0.3633823537685351	0.8553750673224436	0.8553750673224149	-0.1731828221488768	0.1715893657133391	0.1039627244362534	-0.03538212124799259	-0.6070817613737027	-0.1861161170621002	-0.5086694581042528	2.16891465485942	0.01291333865113175	0.6052779138862917	-0.503885760585177	1.774095831311378	1.774095831311391	-0.01446569249237659	0.02913859732961413	0.3114797688652353	0.05569830797225356	-0.282161049299397	0.06333517784664265	-0.02274289424969433	-0.2256305260167811	0.1182481492688887	0.006076864789921138	0.2516049388310331	-3.165155716825202	-3.324467816343322	1.543377486727795	-1.388711482470139	-637.2083100416456	-21.18147400917775	-18.19813905169266	0.9273177917986121	0.6795901748239329	0.07311513587515363	-2.616517847459299	0.5526991333820679	-0.7094108277905907	1.941699817888317	-2.148521492497828	-2.148521492498821	0.178556535294249	-0.02225514613591124	-0.5213901740833099	0.5230558723957365	-1.94231385986133e-07	-3.110562341813109e-07	1.178979846355322e-06	9.642988133198631e-08	-2.219892277226597e-07	1.256946080647936e-07	-2.156396115813607e-07
0.58	-0.4667299409638164	-0.07333280963720235	0.7251239763444869	1.412570823875277	-0.3075110379173054	0.02304209195796537	-0.3683236434843764	0.8730062128596453	0.8730062128596187	-0.173318193173682	0.1718786048001849	0.1070510072601427	-0.03479887819968911	-0.5976505907797555	-0.1793289502354531	-0.507613287116281	2.141990097818635	0.01841827008567284	0.5981752008943825	-0.4843456037525536	1.751883461124636	1.751883461124642	-0.01268206712677676	0.02861585344640775	0.3061181638645896	0.06091164265588172	-0.2893585593872475	0.06311815815465117	-0.02272905686167787	-0.2273284562103272	0.1172393515433577	0.00641074237191599	0.2571173438397616	-3.742659942670504	-3.247361098830122	1.392881853657442	-1.080519546779247	-641.8274373436594	-21.0630007760967	-17.10011469925507	0.9548392053288332	0.6773563913395009	0.1381142371119978	-2.762829896757811	0.5570419931237592	-0.7208889840367587	1.970673766575424	-2.291812680783254	-2.291812680783334	0.2000830770055242	-0.08379871267363424	-0.5481252592349025	0.5296588496610413	-1.794609440925433e-07	-2.364357509508774e-07	1.130045688079614e-06	1.002849530203558e-07	-2.01502931077699e-07	1.489158780749382e-07	-1.992072799728451e-07
0.59	-0.4726577204811097	-0.07509225895039312	0.7200558330088898	1.433849636740518	-0.3072996359051437	0.02898888779138203	-0.3730689010526216	0.8904081006420456	0.8904081006420421	-0.1734367469272404	0.1721594269336415	0.1100842418181935	-0.0341639639586316	-0.5878386171768635	-0.1725674428740367	-0.5059058489792998	2.113517012474838	0.0238733566987958	0.5911855049697605	-0.4647043154777734	1.728274118734024	1.728274118734048	-0.01100158381591664	0.02743368575060764	0.3004980816136312	0.0660886808919158	-0.2962463547402653	0.06277649839463142	-0.02269022904105684	-0.2290676567780291	0.1163601014622364	0.006632628164896574	0.262332251943714	-4.269422431897336	-3.131004383521518	1.236703209577418	-0.7861326327092439	-646.2339682921943	-20.91282336323808	-16.01282367228482	1.004362011103507	0.6745888475116426	0.2034503555122767	-2.927890668206035	0.5412899380000423	-0.6879404752176637	1.96109551970433	-2.428453594840485	-2.428453594837865	0.1560934042179931	-0.1528876911774167	-0.5735389664823402	0.5142488728371801	-1.639689000338811e-07	-1.720565959299594e-07	1.075102342355661e-06	1.017566119999976e-07	-1.821311367565965e-07	1.70340870084189e-07	-1.830713120750693e-07
